# Blender v2.82 (sub 7) OBJ File: ''
# www.blender.org
mtllib CenterW.mtl
o Cube_Cube.001
v -0.010000 -0.010000 0.010000
v -0.010000 0.010000 0.010000
v -0.010000 -0.010000 -0.010000
v -0.010000 0.010000 -0.010000
v 0.010000 -0.010000 0.010000
v 0.010000 0.010000 0.010000
v 0.010000 -0.010000 -0.010000
v 0.010000 0.010000 -0.010000
vt 0.125000 0.500000
vt 0.375000 0.500000
vt 0.375000 0.750000
vt 0.125000 0.750000
vt 0.375000 0.000000
vt 0.625000 0.000000
vt 0.625000 0.250000
vt 0.375000 0.250000
vt 0.625000 0.500000
vt 0.625000 0.750000
vt 0.625000 1.000000
vt 0.375000 1.000000
vt 0.875000 0.500000
vt 0.875000 0.750000
vn 0.0000 -1.0000 0.0000
vn -1.0000 0.0000 0.0000
vn 0.0000 0.0000 -1.0000
vn 1.0000 0.0000 0.0000
vn 0.0000 0.0000 1.0000
vn 0.0000 1.0000 0.0000
g Cube_Cube.001_White
usemtl White
s off
f 3/1/1 7/2/1 5/3/1 1/4/1
g Cube_Cube.001_Black
usemtl Black
f 1/5/2 2/6/2 4/7/2 3/8/2
f 3/8/3 4/7/3 8/9/3 7/2/3
f 7/2/4 8/9/4 6/10/4 5/3/4
f 5/3/5 6/10/5 2/11/5 1/12/5
f 8/9/6 4/13/6 2/14/6 6/10/6
