# Blender v2.82 (sub 7) OBJ File: ''
# www.blender.org
mtllib CornerGRW.mtl
o Cube_Cube.001
v -0.010000 -0.010000 0.010000
v -0.010000 0.010000 0.010000
v -0.010000 -0.010000 -0.010000
v -0.010000 0.010000 -0.010000
v 0.010000 -0.010000 0.010000
v 0.010000 0.010000 0.010000
v 0.010000 -0.010000 -0.010000
v 0.010000 0.010000 -0.010000
vt 0.375000 0.500000
vt 0.625000 0.500000
vt 0.625000 0.750000
vt 0.375000 0.750000
vt 0.375000 0.250000
vt 0.625000 0.250000
vt 0.125000 0.500000
vt 0.125000 0.750000
vt 0.375000 0.000000
vt 0.625000 0.000000
vt 0.625000 1.000000
vt 0.375000 1.000000
vt 0.875000 0.500000
vt 0.875000 0.750000
vn 1.0000 0.0000 0.0000
vn 0.0000 0.0000 -1.0000
vn 0.0000 -1.0000 0.0000
vn -1.0000 0.0000 0.0000
vn 0.0000 0.0000 1.0000
vn 0.0000 1.0000 0.0000
g Cube_Cube.001_Red
usemtl Red
s off
f 7/1/1 8/2/1 6/3/1 5/4/1
g Cube_Cube.001_Green
usemtl Green
f 3/5/2 4/6/2 8/2/2 7/1/2
g Cube_Cube.001_White
usemtl White
f 3/7/3 7/1/3 5/4/3 1/8/3
g Cube_Cube.001_Black
usemtl Black
f 1/9/4 2/10/4 4/6/4 3/5/4
f 5/4/5 6/3/5 2/11/5 1/12/5
f 8/2/6 4/13/6 2/14/6 6/3/6
