# Blender v2.82 (sub 7) OBJ File: ''
# www.blender.org
mtllib CornerG0W.mtl
o Cube_Cube.001
v -0.010000 -0.010000 0.010000
v -0.010000 0.010000 0.010000
v -0.010000 -0.010000 -0.010000
v -0.010000 0.010000 -0.010000
v 0.010000 -0.010000 0.010000
v 0.010000 0.010000 0.010000
v 0.010000 -0.010000 -0.010000
v 0.010000 0.010000 -0.010000
vt 0.375000 0.250000
vt 0.625000 0.250000
vt 0.625000 0.500000
vt 0.375000 0.500000
vt 0.125000 0.500000
vt 0.375000 0.750000
vt 0.125000 0.750000
vt 0.375000 0.000000
vt 0.625000 0.000000
vt 0.625000 0.750000
vt 0.625000 1.000000
vt 0.375000 1.000000
vt 0.875000 0.500000
vt 0.875000 0.750000
vn 0.0000 0.0000 -1.0000
vn 0.0000 -1.0000 0.0000
vn -1.0000 0.0000 0.0000
vn 1.0000 0.0000 0.0000
vn 0.0000 0.0000 1.0000
vn 0.0000 1.0000 0.0000
g Cube_Cube.001_Green
usemtl Green
s off
f 3/1/1 4/2/1 8/3/1 7/4/1
g Cube_Cube.001_White
usemtl White
f 3/5/2 7/4/2 5/6/2 1/7/2
g Cube_Cube.001_Orange
usemtl Orange
f 1/8/3 2/9/3 4/2/3 3/1/3
g Cube_Cube.001_Black
usemtl Black
f 7/4/4 8/3/4 6/10/4 5/6/4
f 5/6/5 6/10/5 2/11/5 1/12/5
f 8/3/6 4/13/6 2/14/6 6/10/6
