# Blender v2.82 (sub 7) OBJ File: ''
# www.blender.org
mtllib EdgeRY.mtl
o Cube_Cube.001
v -0.010000 -0.010000 0.010000
v -0.010000 0.010000 0.010000
v -0.010000 -0.010000 -0.010000
v -0.010000 0.010000 -0.010000
v 0.010000 -0.010000 0.010000
v 0.010000 0.010000 0.010000
v 0.010000 -0.010000 -0.010000
v 0.010000 0.010000 -0.010000
vt 0.375000 0.500000
vt 0.625000 0.500000
vt 0.625000 0.750000
vt 0.375000 0.750000
vt 0.875000 0.500000
vt 0.875000 0.750000
vt 0.375000 0.000000
vt 0.625000 0.000000
vt 0.625000 0.250000
vt 0.375000 0.250000
vt 0.625000 1.000000
vt 0.375000 1.000000
vt 0.125000 0.500000
vt 0.125000 0.750000
vn 1.0000 0.0000 0.0000
vn 0.0000 1.0000 0.0000
vn -1.0000 0.0000 0.0000
vn 0.0000 0.0000 -1.0000
vn 0.0000 0.0000 1.0000
vn 0.0000 -1.0000 0.0000
g Cube_Cube.001_Red
usemtl Red
s off
f 7/1/1 8/2/1 6/3/1 5/4/1
g Cube_Cube.001_Yellow
usemtl Yellow
f 8/2/2 4/5/2 2/6/2 6/3/2
g Cube_Cube.001_Black
usemtl Black
f 1/7/3 2/8/3 4/9/3 3/10/3
f 3/10/4 4/9/4 8/2/4 7/1/4
f 5/4/5 6/3/5 2/11/5 1/12/5
f 3/13/6 7/1/6 5/4/6 1/14/6
